<?xml version="1.0" encoding="utf-8"?>
<!-- Generator: Adobe Illustrator 21.1.0, SVG Export Plug-In . SVG Version: 6.00 Build 0)  -->
<svg version="1.1" id="symbol_x5F_pos" xmlns="http://www.w3.org/2000/svg" xmlns:xlink="http://www.w3.org/1999/xlink" x="0px"
	 y="0px" viewBox="0 0 86.1 109.2" style="enable-background:new 0 0 86.1 109.2;" xml:space="preserve">
<style type="text/css">
	.st0{fill:#F9B035;}
</style>
<g>
	<g>
		<path class="st0" d="M86.1,12.5v36.6c0,8.8-1.7,16.5-5.2,22.9c-3.5,6.5-8.5,11.6-14.8,15c-0.5,0.3-1,0.5-1.4,0.7
			c-1.3,0.6-2.6,1.2-3.9,1.7l-0.1,0l-41.9,19.7l9.6-18.7c-2.5-0.7-4.9-1.6-7.2-2.7c-0.5-0.2-1-0.5-1.4-0.7
			c-6.3-3.4-11.2-8.5-14.8-15C1.7,65.6,0,57.9,0,49.1V12.5c0-0.9,0.1-1.7,0.2-2.5c0.1-0.3,0.1-0.6,0.2-0.9c0,0,0,0,0,0
			C1,7,2.1,5.1,3.6,3.6c1.8-1.8,3.9-2.9,6.3-3.4C10.7,0.1,11.6,0,12.5,0c0.4,0,0.8,0,1.3,0.1c0.4,0,0.7,0.1,1.1,0.1
			c0.3,0.1,0.6,0.1,0.9,0.2c0.3,0.1,0.6,0.2,0.9,0.3c1.8,0.6,3.3,1.6,4.7,2.9c1.3,1.3,2.3,2.8,2.9,4.4c0.1,0.2,0.2,0.5,0.2,0.7
			c0.1,0.4,0.2,0.8,0.3,1.2c0.2,0.8,0.2,1.6,0.2,2.5v36.6c0,6.7,1.6,11.5,5,14.7c3.3,3.1,7.6,4.7,13.2,4.8c5.6-0.1,9.9-1.7,13.1-4.8
			c3.3-3.2,5-8,5-14.7V12.5c0-0.9,0.1-1.7,0.2-2.5c0.1-0.4,0.2-0.8,0.3-1.2c0.1-0.3,0.2-0.5,0.2-0.7c0.6-1.7,1.6-3.2,2.9-4.4
			c1.4-1.4,2.9-2.3,4.7-2.9c0.3-0.1,0.6-0.2,0.9-0.3c0.3-0.1,0.6-0.1,0.9-0.2c0.4-0.1,0.7-0.1,1.1-0.1C72.8,0,73.2,0,73.7,0
			c0.9,0,1.7,0.1,2.6,0.2c2.4,0.5,4.6,1.6,6.3,3.4C84.1,5.1,85.2,7,85.7,9c0.1,0.3,0.1,0.6,0.2,0.9C86.1,10.8,86.1,11.6,86.1,12.5z"
			/>
	</g>
</g>
</svg>
