<?xml version="1.0" encoding="utf-8"?>
<!-- Generator: Adobe Illustrator 21.1.0, SVG Export Plug-In . SVG Version: 6.00 Build 0)  -->
<svg version="1.1" id="positiv" xmlns="http://www.w3.org/2000/svg" xmlns:xlink="http://www.w3.org/1999/xlink" x="0px" y="0px"
	 viewBox="0 0 290.3 81.2" style="enable-background:new 0 0 290.3 81.2;" xml:space="preserve">
<style type="text/css">
	.st0{fill:#FFFFFF;}
</style>
<g>
	<g>
		<g>
			<path class="st0" d="M31.5,57c0,1.9-0.7,3.5-2.2,4.7c-1.3,1.1-3,1.7-4.9,1.7H23c-3,0-5.7-0.8-8.2-2.3c-2.4-1.5-4.4-3.6-5.7-6.3
				c-1.4-2.6-2-5.5-2-8.7V30H6.2c-1.7,0-3.2-0.6-4.4-1.6C0.6,27.3,0,25.9,0,24.2c0-1.7,0.6-3.3,1.8-4.4c1.1-1,2.6-1.6,4.4-1.6h0.9
				V10c0-1.8,0.6-3.4,1.8-4.6c1.2-1.2,2.8-1.8,4.6-1.8c1.8,0,3.4,0.6,4.6,1.8c1.2,1.2,1.8,2.8,1.8,4.6v8.3h3.8
				c1.7,0,3.2,0.6,4.4,1.6c1.2,1.1,1.8,2.6,1.8,4.4c0,1.6-0.6,3.1-1.8,4.2c-1.1,1.1-2.7,1.6-4.4,1.6h-3.8v16.1
				c0,1.4,0.3,2.5,1.1,3.4c0.8,0.9,1.5,1.1,2.1,1.1h2.6c1.7,0,3.1,0.7,4.3,1.9l0,0C30.9,53.7,31.5,55.3,31.5,57z"/>
		</g>
		<g>
			<path class="st0" d="M87.4,7.6c0,2.1-0.8,3.9-2.3,5.4c-1.5,1.5-3.3,2.3-5.4,2.3c-2.1,0-3.9-0.8-5.4-2.3c-1.5-1.5-2.3-3.3-2.3-5.4
				c0-2.1,0.8-3.9,2.3-5.4C75.9,0.8,77.7,0,79.8,0c2.1,0,3.9,0.8,5.4,2.2C86.6,3.7,87.4,5.6,87.4,7.6z"/>
			<path class="st0" d="M86.3,23.2V57c0,1.8-0.6,3.4-1.8,4.6c-1.2,1.3-2.8,1.9-4.7,1.9c-1.8,0-3.4-0.6-4.6-1.9
				c-1.2-1.2-1.9-2.8-1.9-4.6V23.2c0-1.9,0.7-3.5,1.9-4.7c1.2-1.2,2.8-1.8,4.6-1.8c1.9,0,3.5,0.6,4.7,1.8
				C85.7,19.8,86.3,21.4,86.3,23.2z"/>
		</g>
		<g>
			<path class="st0" d="M139.4,28.1c-2-3.6-4.9-6.5-8.5-8.6c-3.6-2.1-7.6-3.1-12-3.1c-4.3,0-8.4,1.1-11.9,3.1s-6.4,4.9-8.5,8.5
				c-2.1,3.6-3.1,7.7-3.1,12v34.6c0,1.9,0.7,3.5,1.9,4.7c1.2,1.2,2.8,1.8,4.6,1.8c1.9,0,3.5-0.6,4.7-1.8c1.2-1.2,1.8-2.8,1.8-4.7
				V60.2c0.8,0.6,1.7,1.1,2.7,1.5c2.9,1.4,6,2.1,9.3,2.1c4.1,0,7.9-1.1,11.3-3.1c3.3-2.1,6-4.9,7.9-8.6c1.9-3.6,2.8-7.6,2.8-11.9
				C142.4,35.8,141.4,31.7,139.4,28.1z M109.5,34.1c0.9-1.8,2.2-3.1,3.9-4.1c1.7-1,3.4-1.5,5.5-1.5c2.1,0,3.9,0.5,5.5,1.5
				c1.7,1,2.9,2.4,3.9,4.1c1,1.8,1.5,3.8,1.5,6c0,2.2-0.5,4.2-1.5,6c-1,1.8-2.2,3.1-3.9,4.1c-1.6,1-3.4,1.5-5.5,1.5
				c-2.1,0-3.9-0.5-5.5-1.5c-1.7-1-2.9-2.3-3.9-4.1c-1-1.8-1.4-3.7-1.4-6C108.1,37.9,108.6,35.9,109.5,34.1z"/>
		</g>
		<g>
			<path class="st0" d="M192.7,28.1c-2.1-3.6-4.9-6.5-8.5-8.6c-3.6-2.1-7.6-3.1-12-3.1c-4.3,0-8.3,1.1-11.9,3.1
				c-3.5,2.1-6.4,4.9-8.5,8.5c-2.1,3.6-3.1,7.7-3.1,12v34.6c0,1.9,0.7,3.5,1.9,4.7c1.2,1.2,2.8,1.8,4.6,1.8c1.9,0,3.5-0.6,4.7-1.8
				c1.2-1.2,1.8-2.8,1.8-4.7V60.2c0.9,0.6,1.7,1.1,2.7,1.5c2.9,1.4,6,2.1,9.3,2.1c4.1,0,7.9-1.1,11.3-3.1c3.3-2.1,6-4.9,7.9-8.6
				c1.9-3.6,2.8-7.6,2.8-11.9C195.7,35.8,194.7,31.7,192.7,28.1z M162.8,34.1c0.9-1.8,2.2-3.1,3.9-4.1c1.6-1,3.4-1.5,5.5-1.5
				s3.9,0.5,5.5,1.5c1.7,1,2.9,2.4,3.9,4.1c1,1.8,1.5,3.8,1.5,6c0,2.2-0.5,4.2-1.5,6c-1,1.8-2.3,3.1-3.9,4.1c-1.6,1-3.4,1.5-5.5,1.5
				c-2.1,0-3.9-0.5-5.5-1.5c-1.7-1-2.9-2.3-3.9-4.1c-1-1.8-1.4-3.7-1.4-6C161.4,37.9,161.9,35.9,162.8,34.1z"/>
		</g>
		<g>
			<path class="st0" d="M290.3,48.7c0,2.8-0.8,5.5-2.3,7.8c-1.5,2.3-3.8,4.1-6.7,5.4c-2.8,1.2-6.1,1.9-9.9,1.9
				c-3.7,0-7.3-0.6-10.6-1.7c-3.4-1.2-6.1-2.8-8.1-4.8c-1.2-1.1-1.8-2.6-1.8-4.2c0-2.1,0.9-3.8,2.6-5.1c1.4-1.1,2.9-1.6,4.2-1.6
				c1.2,0,3,0.4,4.7,2.1l0.1,0.1c0.7,0.8,1.8,1.5,3.4,2.1c1.6,0.7,3.3,1,5.1,1c2.4,0,4.2-0.4,5.3-1.1c1-0.6,1.1-1.2,1.1-1.6
				c0-0.3,0-0.9-1.2-1.7c-0.9-0.6-2.8-1.4-7-2.2c-11.1-2.1-16.7-7-16.7-14.6c0-3.1,1-5.8,2.8-8c1.8-2.1,4.1-3.6,6.9-4.6
				c2.7-1,5.5-1.4,8.5-1.4c3.6,0,6.9,0.6,9.8,1.8c3,1.2,5.4,3,7.2,5.2c1,1.3,1.6,2.7,1.6,4.1c0,1.2-0.4,2.9-2.3,4.4l-0.1,0.1
				c-1,0.7-2.2,1.1-3.7,1.1c-2,0-3.8-0.7-5.3-2.1c-1-0.9-2-1.6-3.1-1.9c-1.1-0.4-2.6-0.6-4.3-0.6c-1.9,0-3.4,0.3-4.5,0.9
				c-0.8,0.4-0.8,0.7-0.8,1c0,0.6,0.2,0.9,0.2,1c0,0,0.3,0.4,1.8,1c1.3,0.5,3.2,1,5.7,1.6c6,1.2,10.2,2.9,12.9,5.2
				C288.8,41.5,290.3,44.8,290.3,48.7z"/>
		</g>
		<g>
			<g>
				<path class="st0" d="M69.8,23.2c0,0.6-0.1,1.1-0.2,1.5c-0.8,2.7-2.8,4.3-5.6,4.3c-0.4,0-1-0.1-1.7-0.2c-1.8-0.3-3.3-0.5-4.4-0.5
					c-3,0-5.5,0.7-7.2,2c-1.6,1.2-2.3,2.6-2.3,4.6V57c0,1.9-0.6,3.5-1.7,4.6c-1.1,1.2-2.7,1.8-4.7,1.8c-1.9,0-3.5-0.6-4.6-1.7
					c-1.2-1.1-1.8-2.7-1.8-4.7V23.2c0-1.9,0.6-3.5,1.8-4.7c0.8-0.8,2.3-1.8,4.7-1.8c2.6,0,4.5,1,5.5,2.8c0.9-0.6,1.8-1.1,2.8-1.5
					c2.6-1.2,5.3-1.8,8.2-1.8c3.1,0,5.6,0.5,7.5,1.5c1.5,0.8,2.4,1.8,3,2.7C69.7,21.5,69.8,22.4,69.8,23.2z"/>
			</g>
		</g>
	</g>
	<g>
		<g>
			<path class="st0" d="M245.3,23.1v18.7c0,4.5-0.9,8.4-2.7,11.7c-1.8,3.3-4.3,5.9-7.5,7.7c-0.2,0.1-0.5,0.3-0.7,0.4
				c-0.6,0.3-1.3,0.6-2,0.8l0,0l-21.4,10.1l4.9-9.5c-1.3-0.4-2.5-0.8-3.7-1.4c-0.3-0.1-0.5-0.3-0.7-0.4c-3.2-1.7-5.7-4.3-7.5-7.7
				c-1.8-3.3-2.7-7.2-2.7-11.7V23.1c0-0.4,0-0.9,0.1-1.3c0-0.1,0.1-0.3,0.1-0.5c0,0,0,0,0,0c0.3-1,0.8-2,1.6-2.8
				c0.9-0.9,2-1.5,3.2-1.7c0.4-0.1,0.9-0.1,1.3-0.1c0.2,0,0.4,0,0.7,0c0.2,0,0.4,0,0.5,0.1c0.2,0,0.3,0.1,0.5,0.1
				c0.2,0,0.3,0.1,0.5,0.1c0.9,0.3,1.7,0.8,2.4,1.5c0.7,0.7,1.2,1.4,1.5,2.3c0,0.1,0.1,0.3,0.1,0.4c0.1,0.2,0.1,0.4,0.1,0.6
				c0.1,0.4,0.1,0.8,0.1,1.3v18.7c0,3.4,0.8,5.9,2.5,7.5c1.7,1.6,3.9,2.4,6.7,2.5c2.8,0,5-0.9,6.7-2.5c1.7-1.6,2.5-4.1,2.5-7.5V23.1
				c0-0.4,0-0.9,0.1-1.3c0-0.2,0.1-0.4,0.1-0.6c0-0.1,0.1-0.3,0.1-0.4c0.3-0.8,0.8-1.6,1.5-2.3c0.7-0.7,1.5-1.2,2.4-1.5
				c0.1,0,0.3-0.1,0.5-0.1c0.2,0,0.3-0.1,0.5-0.1c0.2,0,0.4,0,0.5-0.1c0.2,0,0.4,0,0.7,0c0.4,0,0.9,0,1.3,0.1
				c1.2,0.2,2.3,0.8,3.2,1.7c0.8,0.8,1.3,1.7,1.6,2.8c0,0.2,0.1,0.3,0.1,0.5C245.2,22.2,245.3,22.6,245.3,23.1z"/>
		</g>
	</g>
</g>
</svg>
