<svg width="24" height="19" viewBox="0 0 24 19" version="1.1" xmlns="http://www.w3.org/2000/svg" xmlns:xlink="http://www.w3.org/1999/xlink">
<title>&#239;&#130;&#128;</title>
<desc>Created using Figma</desc>
<g id="Canvas" transform="translate(-6867 -976)">
<g id="&#239;&#130;&#128;">
<use xlink:href="#path0_fill" transform="translate(6867 975)" fill="#444f63"/>
</g>
</g>
<defs>
<path id="path0_fill" d="M 7.5 10.5L 4.5 10.5L 4.5 16.5L 7.5 16.5L 7.5 10.5ZM 12 4.5L 9 4.5L 9 16.5L 12 16.5L 12 4.5ZM 24 18L 1.5 18L 1.5 1.5L 0 1.5L 0 19.5L 24 19.5L 24 18ZM 16.5 7.5L 13.5 7.5L 13.5 16.5L 16.5 16.5L 16.5 7.5ZM 21 3L 18 3L 18 16.5L 21 16.5L 21 3Z"/>
</defs>
</svg>
