<svg width="21" height="21" viewBox="0 0 21 21" version="1.1" xmlns="http://www.w3.org/2000/svg" xmlns:xlink="http://www.w3.org/1999/xlink">
<title>&#239;&#130;&#172;</title>
<desc>Created using Figma</desc>
<g id="Canvas" transform="translate(-6696 -1119)">
<g id="&#239;&#130;&#172;">
<use xlink:href="#path0_fill" transform="translate(6696 1117)" fill="#FFFFFF"/>
</g>
</g>
<defs>
<path id="path0_fill" d="M 10.2857 2.14286C 4.60714 2.14286 0 6.75 0 12.4286C 0 18.1071 4.60714 22.7143 10.2857 22.7143C 15.9643 22.7143 20.5714 18.1071 20.5714 12.4286C 20.5714 6.75 15.9643 2.14286 10.2857 2.14286ZM 13.9554 9.12054C 14.1027 9.02679 14.3438 8.90625 14.5312 8.95982C 14.6786 9 14.7991 9.05357 14.625 9.17411C 14.5446 9.22768 14.4241 9.17411 14.3304 9.20089C 14.4509 9.22768 14.625 9.28125 14.5714 9.40179C 14.9196 9.60268 14.4643 9.84375 14.2366 9.81696C 14.3438 9.83036 14.0089 10.0312 14.0089 10.0179C 13.8884 10.0848 13.7277 10.0848 13.6339 10.2054C 13.5268 10.3527 13.6741 10.6071 13.4732 10.5536C 13.3929 10.7277 13.0848 10.6339 12.9509 10.8214C 13.0982 10.9821 12.8036 11.2098 12.6562 11.0089C 12.5223 11.0625 12.5893 11.2098 12.4554 11.2902C 12.5089 11.3705 12.5223 11.4509 12.4286 11.5045C 12.4554 11.4911 12.6161 11.625 12.6562 11.6384C 12.6295 11.7054 12.5759 11.7589 12.5089 11.7589C 12.5759 11.933 12.4286 12.1205 12.308 12.2277C 12.1741 12.3348 11.8661 12.442 11.8259 12.4688C 11.5848 12.6964 11.4241 13.0312 11.8527 13.125C 11.8661 13.125 11.8661 13.567 11.8795 13.5804C 11.9062 13.7411 11.9732 14.2098 11.692 14.0357C 11.558 13.9688 11.4777 13.5938 11.4375 13.4464C 11.3973 13.2857 11.3839 13.2857 11.2768 13.125C 11.1027 13.3259 11.0759 13.1786 10.9286 13.0848C 10.7812 13.0045 10.567 13.0312 10.4866 12.9509C 10.2857 13.0982 10.1384 13.058 10.0982 12.8304C 10.0446 12.9375 10.1518 13.0982 10.1384 13.1384C 10.0714 13.2723 9.95089 13.2455 9.84375 13.1652C 9.66964 13.0312 9.29464 13.2589 9.09375 13.1652C 9.10714 13.1652 9.16071 13.2188 9.20089 13.2455C 9.16071 13.4062 9.06696 13.3125 8.98661 13.3661C 8.89286 13.433 8.8125 13.567 8.73214 13.6339C 8.90625 13.9688 8.71875 14.2902 8.73214 14.6518C 8.73214 14.9196 8.90625 15.3884 9.16071 15.5357C 9.28125 15.6027 9.68304 15.6295 9.80357 15.5759C 9.99107 15.4955 9.96429 15.3482 10.0312 15.1875C 10.0982 15.0134 10.1786 14.933 10.3795 14.9196C 10.9554 14.8929 10.5134 15.3616 10.4464 15.6027C 10.4062 15.7768 10.3929 15.9777 10.3661 16.1384C 10.433 16.1652 10.5 16.1518 10.567 16.1518C 10.567 16.0982 10.6071 16.0312 10.6071 15.9911C 10.6875 16.125 10.9554 16.1652 11.0357 16.0045C 11.1295 16.1652 11.317 16.2857 11.3438 16.4732C 11.3705 16.6607 11.5446 16.8616 11.2902 16.8616C 11.1027 16.8616 11.317 17.2366 11.3438 17.3036C 11.4911 17.5714 11.7321 17.6786 12 17.5446C 12 17.6518 11.9598 17.9464 11.8125 17.9732C 11.6786 18 11.4241 17.7188 11.4777 17.5714C 11.4643 17.625 11.4241 17.6652 11.3839 17.692C 11.25 17.5312 11.0223 17.4509 10.9018 17.2902C 10.875 17.25 10.5134 16.7009 10.5938 16.6741C 10.4062 16.7545 10.0312 16.6205 9.85714 16.5268C 9.57589 16.3795 9.53571 15.9911 9.1875 16.0446C 8.94643 16.0848 8.87946 16.1786 8.59821 16.0714C 8.41071 16.0045 8.25 15.8705 8.0625 15.7768C 7.84821 15.6562 7.47321 15.5357 7.39286 15.2679C 7.3125 15.0536 7.33929 14.7991 7.21875 14.5982C 7.13839 14.4643 6.89732 14.1964 6.72321 14.1964C 6.88393 14.1964 6.57589 13.7946 6.53571 13.7545C 6.38839 13.5804 5.85268 13.1116 5.95982 12.8438C 5.98661 12.8036 5.69196 12.6964 5.63839 12.683C 5.69196 12.817 5.70536 12.9643 5.77232 13.0848C 5.83929 13.2188 5.91964 13.3393 6 13.4732C 6.14732 13.7143 6.34821 14.0089 6.32143 14.3036C 6.14732 14.3571 6.20089 14.1027 6.14732 13.9955C 6.05357 13.8214 5.79911 13.8214 5.73214 13.6339C 5.75893 13.6205 5.77232 13.6205 5.79911 13.6071C 5.8125 13.3795 5.47768 13.192 5.53125 13.0312C 5.34375 12.8839 5.34375 12.6027 5.20982 12.4152C 5.08929 12.2411 4.88839 12.1607 4.71429 12.0402C 4.64732 12 4.16518 11.3839 4.33929 11.3438C 4.07143 11.4107 3.9375 10.7812 3.97768 10.6205C 3.97768 10.6205 3.95089 10.6205 3.95089 10.6071C 4.00446 10.4464 3.91071 9.61607 4.125 9.60268C 3.97768 9.61607 3.9375 9.25446 3.97768 9.1875C 4.00446 9.13393 4.20536 9.33482 4.21875 9.36161C 4.29911 9.32143 4.37946 9.21429 4.35268 9.12054C 4.3125 9.01339 4.16518 8.91964 4.07143 8.83929C 4.03125 8.8125 3.49554 8.46429 3.48214 8.47768C 3.53571 8.38393 3.52232 8.29018 3.44196 8.22321C 3.1875 8.42411 3.32143 8.03571 3.1875 7.99554C 3.13393 7.98214 3.08036 7.94196 3.02679 7.88839C 3.80357 6.65625 4.88839 5.625 6.17411 4.91518C 6.25446 4.90179 6.36161 4.90179 6.46875 4.90179C 6.70982 4.92857 6.84375 5.12946 7.01786 5.25C 7.04464 5.18304 6.99107 5.07589 6.95089 5.00893C 6.99107 4.90179 7.15179 4.875 7.24554 4.84821C 7.36607 4.83482 7.54018 4.80804 7.64732 4.86161C 7.56696 4.74107 7.47321 4.63393 7.37946 4.52679C 7.36607 4.54018 7.32589 4.56696 7.3125 4.59375C 7.16518 4.47321 6.88393 4.63393 6.75 4.6875C 6.64286 4.74107 6.54911 4.80804 6.44196 4.84821C 6.375 4.875 6.33482 4.875 6.28125 4.86161C 6.68304 4.64732 7.09821 4.45982 7.54018 4.3125C 7.62054 4.36607 7.70089 4.45982 7.82143 4.55357C 7.74107 4.48661 7.74107 4.79464 7.76786 4.84821C 7.91518 5.04911 8.23661 4.91518 8.4375 4.91518C 8.42411 4.91518 9.02679 4.99554 8.90625 4.84821C 9 4.98214 9 5.18304 9.12054 5.30357C 9.24107 5.18304 9.06696 5.04911 9.14732 4.92857C 9.17411 4.875 9.41518 4.80804 9.49554 4.76786C 9.58929 4.70089 9.42857 4.60714 9.38839 4.58036C 9.25446 4.5 8.73214 4.45982 8.98661 4.15179C 9.08036 4.04464 9.41518 4.09821 9.52232 4.16518C 9.66964 4.24554 9.83036 4.39286 9.62946 4.52679C 9.72321 4.54018 10.1652 4.66071 10.0982 4.83482C 10.1384 4.75446 10.2054 4.63393 10.3125 4.63393C 10.433 4.64732 10.4598 4.92857 10.5134 4.99554C 10.7009 5.33036 11.0223 4.66071 11.0759 4.6875C 10.8348 4.59375 11.2902 4.47321 11.4107 4.51339C 11.5045 4.55357 11.6518 4.875 11.4777 4.86161C 11.625 4.99554 11.6384 5.29018 11.3705 5.27679C 11.183 5.26339 10.9688 5.00893 10.7946 5.20982C 10.6741 5.34375 10.6205 5.54464 10.5 5.66518C 10.3125 5.85268 10.058 5.83929 9.83036 5.8125C 9.92411 5.82589 9.62946 6.13393 9.60268 6.1875C 9.52232 6.28125 9.46875 6.38839 9.44196 6.49554C 9.41518 6.62946 9.44196 6.77679 9.375 6.91071C 9.60268 6.84375 9.72321 7.25893 9.62946 7.27232C 9.91071 7.23214 10.1384 7.23214 10.4062 7.32589C 10.5938 7.39286 10.875 7.47321 10.9554 7.67411C 11.0089 7.59375 11.2634 7.63393 11.3438 7.66071C 11.5045 7.74107 11.5179 7.91518 11.558 8.0625C 11.6116 8.26339 11.7857 8.59821 12.0134 8.49107C 12.0536 8.46429 12.3482 8.33036 12.2411 8.25C 12.1339 8.15625 12.0134 7.91518 12.1205 7.78125C 12.2277 7.63393 12.4821 7.59375 12.5491 7.40625C 12.6562 7.09821 12.2277 7.13839 12.2277 6.91071C 12.2277 6.77679 12.4018 6.73661 12.3884 6.57589C 12.3884 6.44196 12.1875 6.17411 12.3482 6.08036C 12.4821 6 13.125 6.13393 13.2455 6.21429C 13.3661 6.29464 13.7411 6.40179 13.7679 6.52232C 13.7411 6.52232 13.7277 6.52232 13.7009 6.52232C 13.808 6.61607 13.9018 6.81696 13.7143 6.87054C 13.8348 6.84375 14.183 6.97768 13.942 7.05804C 14.0223 7.01786 14.0893 7.04464 14.1696 6.99107C 14.2634 6.9375 14.317 6.84375 14.4375 6.91071C 14.4643 6.92411 14.6116 6.62946 14.692 6.64286C 14.8125 6.65625 14.8393 6.83036 14.8929 6.91071C 14.9464 7.03125 15.0938 7.07143 15.1473 7.19196C 15.2411 7.41964 15.2009 7.63393 15.5089 7.71429C 15.6027 7.74107 15.8571 7.59375 15.8438 7.79464C 15.8973 7.74107 15.9241 7.70089 15.9241 7.6875C 15.9375 7.875 16.0179 8.08929 16.2455 8.0625C 16.2455 8.0625 16.2455 8.31696 16.2188 8.35714C 16.1384 8.47768 15.9375 8.45089 15.817 8.51786C 15.7768 8.53125 15.4554 8.8125 15.4955 8.85268C 15.3214 8.65179 15.0402 8.65179 14.8125 8.70536C 14.5714 8.74554 14.3438 8.77232 14.1161 8.86607C 14.0089 8.91964 13.9018 8.97321 13.8214 9.06696C 13.7812 9.12054 13.7143 9.36161 13.6473 9.375C 13.7812 9.34821 13.8482 9.20089 13.9554 9.12054ZM 11.7723 20.8661C 11.7589 20.7991 11.7455 20.6652 11.7455 20.6518C 11.7321 20.4375 11.9598 20.2902 11.9464 20.0893C 11.7991 20.0491 11.7589 19.9018 11.7857 19.7411C 11.8125 19.5134 12.0134 19.3527 12.1741 19.2054C 12.3348 19.058 12.375 18.75 12.3348 18.5625C 12.2679 18.2411 12.2679 17.9062 12.2143 17.5848C 12.2277 17.6652 12.4554 17.6384 12.4955 17.7455C 12.5491 17.6518 12.5759 17.5312 12.6429 17.4375C 12.6964 17.3571 12.7902 17.3304 12.8705 17.2634C 13.0045 17.183 13.2857 16.875 13.4464 17.0625C 13.5804 17.2232 13.2455 17.3973 13.4196 17.5446C 13.4732 17.4375 13.4196 17.2768 13.5268 17.1696C 13.7411 16.9286 13.8884 17.1964 14.1027 17.2634C 14.3304 17.3304 14.4107 17.4107 14.5848 17.558C 14.5312 17.5045 14.7991 17.4107 14.8259 17.3973C 15.0804 17.3438 15.1875 17.4911 15.3616 17.625C 15.5491 17.7589 15.8438 17.8527 15.817 18.1205C 15.9509 18.1473 16.0312 18.1875 16.1384 18.2277C 16.2455 18.2812 16.3929 18.2545 16.4732 18.3348C 15.2411 19.6339 13.6071 20.5446 11.7723 20.8661Z"/>
</defs>
</svg>
